<?xml version="1.0" encoding="UTF-8"?><svg id="Calque_2" xmlns="http://www.w3.org/2000/svg" viewBox="0 0 142.32 32.02"><defs><style>.cls-1{fill:#d14646;}</style></defs><g id="Maquette"><path class="cls-1" d="m98.63,13.27c1.53,3.07,1.52,6.29-.63,9.21-13.62,18.47,44.37,5.77,44.32-1.99-.02-2.7-18.5-5.07-43.69-7.23Z"/><path class="cls-1" d="m0,10.08c18.22,3.76,36.45,7.39,36.52,6.91.24-1.52,3.3-4.58,7.94-7.69C28.75,8.24,13.31,7.22,0,6.21v3.87Z"/><path class="cls-1" d="m72.36.02c-10.07-.32-20.83,4.54-27.9,9.28,18.75,1.26,37.86,2.58,54.17,3.97C95.23,6.46,84.27.4,72.36.02Z"/></g></svg>