<?xml version="1.0" encoding="utf-8"?>
<!-- Generator: Adobe Illustrator 27.5.0, SVG Export Plug-In . SVG Version: 6.00 Build 0)  -->
<svg version="1.1" id="Calque_2_00000048487004025913170880000001457209281615611063_"
	 xmlns="http://www.w3.org/2000/svg" xmlns:xlink="http://www.w3.org/1999/xlink" x="0px" y="0px" viewBox="0 0 142.3 32"
	 style="enable-background:new 0 0 142.3 32;" xml:space="preserve">
<style type="text/css">
	.st0{fill:#FFFFFF;}
</style>
<g id="Maquette">
	<path class="st0" d="M98.6,13.3c1.5,3.1,1.5,6.3-0.6,9.2c-13.6,18.5,44.4,5.8,44.3-2C142.3,17.8,123.8,15.4,98.6,13.3L98.6,13.3z"
		/>
	<path class="st0" d="M0,10.1c18.2,3.8,36.5,7.4,36.5,6.9c0.2-1.5,3.3-4.6,7.9-7.7C28.8,8.2,13.3,7.2,0,6.2V10.1z"/>
	<path class="st0" d="M72.4,0C62.3-0.3,51.5,4.6,44.5,9.3c18.8,1.3,37.9,2.6,54.2,4C95.2,6.5,84.3,0.4,72.4,0z"/>
</g>
</svg>
